<svg id="demands" width="16" height="21" viewBox="0 0 16 21" fill="none" xmlns="http://www.w3.org/2000/svg">
<path d="M3.86857 10.8593H12.1314V9.69267H3.86857V10.8593ZM3.86857 14.0898H12.1314V12.9232H3.86857V14.0898ZM3.86857 17.3215H8.70286V16.1548H3.86857V17.3215ZM1.84571 21C1.32 21 0.881143 20.8203 0.529143 20.461C0.177143 20.1017 0.000761905 19.6533 0 19.1158V1.88417C0 1.3475 0.176381 0.8995 0.529143 0.540167C0.881905 0.180833 1.32114 0.000777778 1.84686 0H10.8571L16 5.25V19.1158C16 19.6525 15.824 20.1009 15.472 20.461C15.12 20.8211 14.6804 21.0008 14.1531 21H1.84571ZM10.2857 5.83333H14.8571L10.2857 1.16667V5.83333Z" fill="#B3B3B3"/>
</svg>
