<svg width="22" height="22" viewBox="0 0 22 22" fill="none" xmlns="http://www.w3.org/2000/svg">
<path d="M19.3333 0H2.41667C1.0875 0 0 1.0875 0 2.41667V19.3333C0 20.6625 1.0875 21.75 2.41667 21.75H19.3333C20.6625 21.75 21.75 20.6625 21.75 19.3333V2.41667C21.75 1.0875 20.6625 0 19.3333 0ZM4.83333 4.83333H7.25V7.25H4.83333V4.83333ZM4.83333 9.66667H7.25V12.0833H4.83333V9.66667ZM4.83333 14.5H7.25V16.9167H4.83333V14.5ZM16.9167 16.9167H9.66667V14.5H16.9167V16.9167ZM16.9167 12.0833H9.66667V9.66667H16.9167V12.0833ZM16.9167 7.25H9.66667V4.83333H16.9167V7.25Z" fill="#B3B3B3"/>
</svg>
